<?xml version="1.0" standalone="no"?>
<svg viewBox="0 0 200 200" xmlns="http://www.w3.org/2000/svg">
  <path fill="#F2F4F8" d="M42.3,-75.6C53.5,-66.8,60.3,-52.8,67.9,-39.3C75.5,-25.8,83.8,-12.9,85.4,0.9C87,14.7,81.8,29.5,73.6,41.8C65.3,54.2,54,64.1,41.3,72.6C28.5,81,14.3,87.9,-0.5,88.7C-15.2,89.6,-30.5,84.4,-42.3,75.5C-54.2,66.5,-62.7,53.8,-68.1,40.6C-73.5,27.4,-75.8,13.7,-75.9,0C-75.9,-13.8,-73.7,-27.5,-67.9,-39.9C-62,-52.4,-52.5,-63.5,-40.6,-71.9C-28.7,-80.2,-14.4,-85.9,0.6,-86.9C15.6,-87.9,31.1,-84.4,42.3,-75.6Z" transform="translate(100 100)" />
</svg>
